<svg width="512" height="512" viewBox="0 0 256 256" fill="none" xmlns="http://www.w3.org/2000/svg">
  <defs>
    <linearGradient id="bubbleBlue" x1="20" y1="60" x2="150" y2="180" gradientUnits="userSpaceOnUse">
      <stop stop-color="#0ea5e9"/>
      <stop offset="1" stop-color="#2563eb"/>
    </linearGradient>
    <linearGradient id="bubbleGreen" x1="110" y1="70" x2="240" y2="180" gradientUnits="userSpaceOnUse">
      <stop stop-color="#22c55e"/>
      <stop offset="1" stop-color="#16a34a"/>
    </linearGradient>
    <linearGradient id="textGrad" x1="60" y1="200" x2="190" y2="200" gradientUnits="userSpaceOnUse">
      <stop stop-color="#0ea5e9"/>
      <stop offset="1" stop-color="#22c55e"/>
    </linearGradient>
  </defs>
  <!-- Left chat bubble -->
  <path fill="url(#bubbleBlue)" d="M30 78c0-9 7-16 16-16h82c9 0 16 7 16 16v54c0 9-7 16-16 16H90l-24 22v-22H46c-9 0-16-7-16-16V78Z"/>
  <!-- Right chat bubble -->
  <path fill="url(#bubbleGreen)" d="M104 98c0-9 7-16 16-16h90c9 0 16 7 16 16v52c0 9-7 16-16 16h-40l-24 22v-22h-26c-9 0-16-7-16-16v-52Z"/>
  <!-- Check mark -->
  <path d="M152 134.5 167.5 150l28.5-36" stroke="white" stroke-width="12" stroke-linecap="round" stroke-linejoin="round"/>
  <!-- Wordmark -->
  <text x="60" y="210" font-family="Inter, Arial, sans-serif" font-size="54" font-weight="700" fill="url(#textGrad)">ourdm</text>
</svg>
